<?xml version="1.0" encoding="UTF-8"?>
<svg width="16px" height="16px" viewBox="0 0 16 16" version="1.1" xmlns="http://www.w3.org/2000/svg" xmlns:xlink="http://www.w3.org/1999/xlink">
    <!-- Generator: sketchtool 50.1 (55044) - http://www.bohemiancoding.com/sketch -->
    <title>EF2745D5-10EB-421E-BF7A-F7B6A13363EE</title>
    <desc>Created with sketchtool.</desc>
    <defs></defs>
    <g id="Page-1" stroke="none" stroke-width="1" fill="none" fill-rule="evenodd">
        <g id="7-Dashboard" transform="translate(-881.000000, -36.000000)" fill="#ACACAC">
            <g id="Group-4" transform="translate(417.000000, 29.000000)">
                <path d="M475.436935,12.9380217 L474.710577,12.9380217 L474.45809,13.1886792 C475.350029,14.2288165 475.89251,15.5772441 475.89251,17.0546598 C475.89251,20.3388222 473.230417,23.0009148 469.946255,23.0009148 C466.662093,23.0009148 464,20.3388222 464,17.0546598 C464,13.7704974 466.662093,11.1084048 469.946255,11.1084048 C471.423671,11.1084048 472.771184,11.6499714 473.811321,12.5409949 L474.063808,12.2903373 L474.063808,11.565809 L478.636021,7 L480,8.36397942 L475.436935,12.9380217 L475.436935,12.9380217 Z M469.946255,12.9380217 C467.672041,12.9380217 465.829617,14.780446 465.829617,17.0546598 C465.829617,19.3279588 467.672041,21.1712979 469.946255,21.1712979 C472.219554,21.1712979 474.062893,19.3279588 474.062893,17.0546598 C474.062893,14.780446 472.219554,12.9380217 469.946255,12.9380217 L469.946255,12.9380217 Z" id="Shape" transform="translate(472.000000, 15.000457) scale(1, -1) translate(-472.000000, -15.000457) "></path>
            </g>
        </g>
    </g>
</svg>