<?xml version="1.0" encoding="UTF-8"?>
<svg width="16px" height="16px" viewBox="0 0 16 16" version="1.1" xmlns="http://www.w3.org/2000/svg" xmlns:xlink="http://www.w3.org/1999/xlink">
    <!-- Generator: sketchtool 50.2 (55047) - http://www.bohemiancoding.com/sketch -->
    <title>2615DB73-FD8F-41DC-8888-07147C555542</title>
    <desc>Created with sketchtool.</desc>
    <defs></defs>
    <g id="Page-1" stroke="none" stroke-width="1" fill="none" fill-rule="evenodd">
        <g id="11-Cerrar-sesión" transform="translate(-1203.000000, -531.000000)">
            <g id="Group-5-Copy-2" transform="translate(1203.000000, 531.000000)">
                <path d="M11.155625,6.1213 C11.907675,6.600975 12.544925,7.243475 13.023625,8 C12.54495,8.756525 11.907625,9.399025 11.155625,9.8787 C10.2107,10.481425 9.1195,10.8 8,10.8 C6.880525,10.8 5.7893,10.481425 4.844375,9.8787 C4.092375,9.399 3.455125,8.7565 2.97645,8 C3.4551,7.24345 4.092375,6.60095 4.844375,6.1213 C4.89335,6.09005 4.942825,6.059775 4.9926,6.03005 C4.868125,6.37165 4.8,6.740325 4.8,7.125 C4.8,8.892275 6.2327,10.325 8,10.325 C9.7673,10.325 11.2,8.892275 11.2,7.125 C11.2,6.740325 11.1319,6.37165 11.007425,6.030025 C11.05715,6.05975 11.10665,6.09005 11.155625,6.1213 M8,4 C5.208525,4 2.788975,5.625525 1.6,8 C2.788975,10.37445 5.208525,12 8,12 C10.791425,12 13.211,10.37445 14.4,8 C13.21105,5.625525 10.791425,4 8,4" id="Fill-1-Copy" fill="#ACACAC"></path>
                <rect id="Base-Copy-52" stroke="#ACACAC" transform="translate(8.000000, 8.000000) scale(1, -1) translate(-8.000000, -8.000000) " x="0.5" y="0.5" width="15" height="15" rx="7.5"></rect>
            </g>
        </g>
    </g>
</svg>