<?xml version="1.0" encoding="UTF-8"?>
<svg width="20px" height="23px" viewBox="0 0 20 23" version="1.1" xmlns="http://www.w3.org/2000/svg" xmlns:xlink="http://www.w3.org/1999/xlink">
    <!-- Generator: sketchtool 50.1 (55044) - http://www.bohemiancoding.com/sketch -->
    <title>738476B3-F272-44ED-A25B-DBAB4E6C2144</title>
    <desc>Created with sketchtool.</desc>
    <defs></defs>
    <g id="Page-1" stroke="none" stroke-width="1" fill="none" fill-rule="evenodd">
        <g id="7-Dashboard" transform="translate(-646.000000, -368.000000)" fill-rule="nonzero">
            <g id="idea-copy-4" transform="translate(646.000000, 368.000000)">
                <path d="M12.6308072,17.554574 C12.9178027,16.5979372 13.4917937,15.7369507 14.25713,15.0672646 C15.6921076,13.871435 16.6009417,12.0538117 16.6009417,10.044843 C16.6009417,6.31390135 13.4918386,3.2526009 9.66520179,3.44394619 C6.2690583,3.58744395 3.49475336,6.4573991 3.39910314,9.85349776 C3.35125561,11.9581614 4.26008969,13.8236323 5.7429148,15.0672646 C6.55605381,15.7369058 7.13004484,16.5978924 7.41704036,17.554574 L12.6308072,17.554574 Z" id="Shape" fill="#FFD15C"></path>
                <path d="M9.37816143,17.6502242 L9.80865471,17.6502242 L7.89533632,10.5231839 C7.94318386,10.5231839 7.99098655,10.5231839 8.03883408,10.5231839 C8.27798206,10.5231839 8.51717489,10.4275336 8.70847534,10.2361883 C8.80412556,10.1405381 8.89982063,10.0926906 9.04331839,10.0926906 C9.18681614,10.0926906 9.28246637,10.1405381 9.37816143,10.2361883 C9.71300448,10.6188341 10.2869955,10.6188341 10.6217937,10.2361883 C10.7174439,10.1405381 10.813139,10.0926906 10.9566368,10.0926906 C11.052287,10.0926906 11.1957848,10.1405381 11.2914798,10.2361883 C11.4828251,10.4275336 11.6741256,10.5231839 11.9611211,10.5231839 C12.0089686,10.5231839 12.0567713,10.5231839 12.1046188,10.5231839 L10.239148,17.6502242 L10.6696413,17.6502242 L12.6307623,10.1883408 C12.6307623,10.0926906 12.6307623,9.99699552 12.5351121,9.94919283 C12.4394619,9.90134529 12.3437668,9.94919283 12.2959641,9.99704036 C12.2003139,10.0926906 12.1046188,10.1405381 12.0089686,10.1405381 C11.8654709,10.1405381 11.7698206,10.0926906 11.6263229,9.99704036 C11.4349776,9.80569507 11.2436771,9.71004484 11.0044843,9.71004484 C10.7652915,9.71004484 10.573991,9.80569507 10.3826457,9.99704036 C10.1913004,10.1883857 9.90430493,10.1883857 9.71300448,9.99704036 C9.56950673,9.80569507 9.33035874,9.71004484 9.09116592,9.71004484 C8.85201794,9.71004484 8.61282511,9.80569507 8.46932735,9.99704036 C8.37367713,10.0926906 8.23017937,10.1405381 8.08668161,10.1405381 C7.99103139,10.1405381 7.84753363,10.0926906 7.7996861,9.99704036 C7.75183857,9.94919283 7.65618834,9.90139013 7.56053812,9.94919283 C7.46488789,9.99704036 7.41704036,10.0926906 7.46488789,10.1883408 L9.37816143,17.6502242 Z" id="Shape" fill="#FFFFFF"></path>
                <g id="Group" transform="translate(7.399103, 17.488789)" fill="#344A5E">
                    <path d="M1.11807175,4.46636771 C1.35726457,5.04035874 1.93125561,5.47085202 2.60089686,5.47085202 C3.27053812,5.47085202 3.84452915,5.04035874 4.08372197,4.46636771 L1.11807175,4.46636771 Z" id="Shape"></path>
                    <path d="M4.37071749,4.51421525 L0.878923767,4.51421525 C0.40058296,4.51421525 0.0179372197,4.13156951 0.0179372197,3.6532287 L0.0179372197,0.0179372197 L5.23170404,0.0179372197 L5.23170404,3.6532287 C5.23170404,4.13152466 4.84901345,4.51421525 4.37071749,4.51421525 Z" id="Shape"></path>
                </g>
                <g id="Group" transform="translate(6.860987, 18.251121)" fill="#415A6B">
                    <path d="M5.72197309,1.0732287 L0.556053812,1.0732287 C0.269058296,1.0732287 0.0299103139,0.834080717 0.0299103139,0.547085202 C0.0299103139,0.260089686 0.269058296,0.020941704 0.556053812,0.020941704 L5.72197309,0.020941704 C6.00896861,0.020941704 6.24811659,0.260089686 6.24811659,0.547085202 C6.24811659,0.834080717 6.00896861,1.0732287 5.72197309,1.0732287 Z" id="Shape"></path>
                    <path d="M5.72197309,2.7473991 L0.556053812,2.7473991 C0.269058296,2.7473991 0.0299103139,2.50825112 0.0299103139,2.22125561 C0.0299103139,1.93426009 0.269058296,1.69511211 0.556053812,1.69511211 L5.72197309,1.69511211 C6.00896861,1.69511211 6.24811659,1.93426009 6.24811659,2.22125561 C6.24811659,2.50820628 6.00896861,2.7473991 5.72197309,2.7473991 Z" id="Shape"></path>
                </g>
                <g id="Group" fill="#FFD15C">
                    <path d="M10,0 C9.76085202,0 9.52165919,0.191345291 9.52165919,0.478340807 L9.52165919,2.10466368 C9.52165919,2.34381166 9.71300448,2.58300448 10,2.58300448 C10.2869955,2.58300448 10.4783408,2.39165919 10.4783408,2.10466368 L10.4783408,0.478340807 C10.4783408,0.191345291 10.239148,0 10,0 Z" id="Shape"></path>
                    <path d="M3.59044843,2.91780269 C3.39910314,2.7264574 3.11210762,2.7264574 2.92080717,2.91780269 C2.72950673,3.10914798 2.72946188,3.3961435 2.92080717,3.58744395 L4.06878924,4.73542601 C4.26013453,4.9267713 4.54713004,4.9267713 4.73843049,4.73542601 C4.92973094,4.54408072 4.92977578,4.2570852 4.73843049,4.06578475 L3.59044843,2.91780269 Z" id="Shape"></path>
                    <path d="M2.10762332,9.51869955 L0.481300448,9.51869955 C0.242152466,9.51869955 0.00295964126,9.71004484 0.00295964126,9.99704036 C0.00295964126,10.2361883 0.194304933,10.4753812 0.481300448,10.4753812 L2.10762332,10.4753812 C2.3467713,10.4753812 2.58596413,10.2840359 2.58596413,9.99704036 C2.58596413,9.75784753 2.3467713,9.51869955 2.10762332,9.51869955 Z" id="Shape"></path>
                    <path d="M4.06874439,15.2586099 L2.92076233,16.4065919 C2.72941704,16.5979372 2.72941704,16.8849327 2.92076233,17.0762332 C3.11210762,17.2675336 3.39910314,17.2675785 3.59040359,17.0762332 L4.73838565,15.9282511 C4.92973094,15.7369058 4.92973094,15.4499103 4.73838565,15.2586099 C4.54704036,15.0673094 4.26008969,15.0672646 4.06874439,15.2586099 Z" id="Shape"></path>
                    <path d="M15.9312556,15.2586099 C15.7399103,15.0672646 15.4529148,15.0672646 15.2615695,15.2586099 C15.0702242,15.4499552 15.0702242,15.7369507 15.2615695,15.9282511 L16.4095516,17.0762332 C16.6008969,17.2675785 16.8878924,17.2675785 17.0791928,17.0762332 C17.2704933,16.8848879 17.2705381,16.5978924 17.0791928,16.4065919 L15.9312556,15.2586099 Z" id="Shape"></path>
                    <path d="M19.5186996,9.51869955 L17.8923767,9.51869955 C17.6532287,9.51869955 17.4140359,9.71004484 17.4140359,9.99704036 C17.4140359,10.2361883 17.6053812,10.4753812 17.8923767,10.4753812 L19.5186996,10.4753812 C19.7578475,10.4753812 19.9970404,10.2840359 19.9970404,9.99704036 C19.9969955,9.75784753 19.8056951,9.51869955 19.5186996,9.51869955 Z" id="Shape"></path>
                    <path d="M16.4095516,2.91780269 L15.2615695,4.06578475 C15.0702242,4.25713004 15.0702242,4.54412556 15.2615695,4.73542601 C15.4529148,4.9267713 15.7399103,4.9267713 15.9312108,4.73542601 L17.0791928,3.58744395 C17.2705381,3.39609865 17.2705381,3.10910314 17.0791928,2.91780269 C16.8878475,2.72650224 16.6008969,2.7264574 16.4095516,2.91780269 Z" id="Shape"></path>
                </g>
            </g>
        </g>
    </g>
</svg>