<?xml version="1.0" encoding="UTF-8"?>
<svg width="16px" height="16px" viewBox="0 0 16 16" version="1.1" xmlns="http://www.w3.org/2000/svg" xmlns:xlink="http://www.w3.org/1999/xlink">
    <!-- Generator: sketchtool 50.2 (55047) - http://www.bohemiancoding.com/sketch -->
    <title>87E29818-E274-470A-B5AF-BE9E324AEC07</title>
    <desc>Created with sketchtool.</desc>
    <defs></defs>
    <g id="Page-1" stroke="none" stroke-width="1" fill="none" fill-rule="evenodd">
        <g id="11-Cerrar-sesión" transform="translate(-1224.000000, -531.000000)">
            <g id="Group-6-Copy-2" transform="translate(1224.000000, 531.000000)">
                <path d="M5.98825778,12.2076373 L4.38409331,12.2076373 C4.28008949,12.2076373 4.19008174,12.1670806 4.11402803,12.0861689 C4.03801635,12.0050556 4,11.9090416 4,11.7983062 L4,7.70382985 C4,7.59293759 4.03801635,7.4969684 4.11400701,7.41596709 C4.18999768,7.33492096 4.28000543,7.2943867 4.38407229,7.2943867 L5.92039779,7.2943867 C5.93525507,7.29136297 5.95044867,7.28918952 5.96597828,7.28786626 C6.06195432,7.27932919 6.21393565,7.15353628 6.4219643,6.91037549 C6.62995092,6.66725952 6.83192722,6.40924289 7.02797725,6.1363256 C7.30003897,5.76531046 7.50201526,5.50940009 7.6339902,5.36868411 C7.70600901,5.29187291 7.76794056,5.18958495 7.81999501,5.06157374 C7.87194438,4.93365217 7.90703963,4.83024385 7.92500755,4.7513488 C7.94312258,4.67245374 7.97000092,4.54352385 8.00612591,4.36431265 C8.03401297,4.19803028 8.05904197,4.06791282 8.0810448,3.9740947 C8.10306865,3.88023177 8.14209372,3.76933952 8.19812002,3.64137313 C8.25406227,3.51347396 8.32217226,3.40686144 8.4021558,3.32158039 C8.47823053,3.24053427 8.56815422,3.2 8.67213702,3.2 C8.85625047,3.2 9.02115609,3.2223846 9.16729522,3.26717619 C9.31328725,3.31192298 9.43324154,3.3673579 9.52730521,3.43345856 C9.62138989,3.49960403 9.70135241,3.58584858 9.76738191,3.69259554 C9.8332643,3.79914083 9.88130486,3.89517724 9.91135648,3.98045829 C9.94128201,4.06571694 9.9653233,4.17235186 9.98343834,4.30025103 C10.0012802,4.42821742 10.0114725,4.52420902 10.0133428,4.58818101 C10.0152342,4.65210818 10.01639,4.7353502 10.01639,4.83766057 C10.01639,4.99973042 9.99747643,5.16186748 9.95941806,5.3238477 C9.92129663,5.48591755 9.88349044,5.61381672 9.84551612,5.70774687 C9.80747876,5.80149777 9.75237712,5.92099431 9.68040034,6.0659228 C9.66844274,6.09146678 9.6483733,6.12987239 9.62046522,6.18107239 C9.59257816,6.23224998 9.57034417,6.27921505 9.55451978,6.32185558 C9.53854829,6.36449611 9.52253477,6.4156737 9.50656328,6.47536595 L11.1684808,6.47536595 C11.4804713,6.47536595 11.7504315,6.59690153 11.9784245,6.84010713 C12.2059552,7.08333514 12.3201093,7.37117549 12.3201093,7.70382985 C12.3201093,8.07065488 12.2100741,8.38836376 11.9900879,8.65702372 C12.0502121,8.84474958 12.0801376,9.00677462 12.0796333,9.14339011 C12.091717,9.4675298 12.0057021,9.7596723 11.8217358,10.01984 C11.8896356,10.2586314 11.8896356,10.5081558 11.8217358,10.7681667 C11.7618217,11.0113274 11.6537409,11.2116909 11.4977667,11.369481 C11.5336395,11.8471534 11.435688,12.2331365 11.2037652,12.5274524 C10.947675,12.8515025 10.5538517,13.0178969 10.0217279,13.0264116 L9.80577653,13.0264116 L9.34974848,13.0264116 L9.24772008,13.0264116 C8.98379121,13.0264116 8.69584207,12.9932716 8.38378859,12.9271933 C8.07202932,12.8610031 7.82886339,12.7991149 7.65490024,12.7416186 C7.48089507,12.6841222 7.23993573,12.5997598 6.93198019,12.4890468 C6.44491729,12.3073406 6.13034315,12.2136606 5.98825778,12.2076373 Z" id="Combined-Shape" fill="#ACACAC" fill-rule="nonzero"></path>
                <rect id="Base-Copy-50" stroke="#ACACAC" transform="translate(8.000000, 8.000000) scale(1, -1) translate(-8.000000, -8.000000) " x="0.5" y="0.5" width="15" height="15" rx="7.5"></rect>
            </g>
        </g>
    </g>
</svg>