<?xml version="1.0" encoding="UTF-8"?>
<svg width="16px" height="16px" viewBox="0 0 16 16" version="1.1" xmlns="http://www.w3.org/2000/svg" xmlns:xlink="http://www.w3.org/1999/xlink">
    <!-- Generator: sketchtool 50.2 (55047) - http://www.bohemiancoding.com/sketch -->
    <title>52803F3F-BE8E-4470-B86A-033E0FE4926A</title>
    <desc>Created with sketchtool.</desc>
    <defs></defs>
    <g id="Page-1" stroke="none" stroke-width="1" fill="none" fill-rule="evenodd">
        <g id="11-Cerrar-sesión" transform="translate(-1182.000000, -531.000000)">
            <g id="Group-12" transform="translate(1182.000000, 531.000000)">
                <rect id="Base-Copy-52" stroke="#ACACAC" transform="translate(8.000000, 8.000000) scale(1, -1) translate(-8.000000, -8.000000) " x="0.5" y="0.5" width="15" height="15" rx="7.5"></rect>
                <path d="M11.5243877,4.46443515 C12.4679023,5.40794979 12.9867308,6.66527197 12.9867308,7.99790795 C12.9867308,9.33054393 12.4679023,10.5857741 11.5243877,11.5292887 C10.5808731,12.4728033 9.32773498,12.9916318 7.99300694,12.9916318 C7.16455506,12.9916318 6.35074753,12.7866109 5.62689816,12.3974895 C5.08924125,12.7677824 4.44488979,12.9790795 3.83191908,12.9790795 C3.70848811,12.9790795 3.58924125,12.9686192 3.47836259,12.9518828 C3.27543372,12.9205021 3.120622,12.7635983 3.08924125,12.5606695 C3.05995255,12.3598326 3.16246301,12.1631799 3.34447138,12.0732218 C3.64363456,11.9267782 3.90723288,11.6213389 4.13108226,11.1631799 C2.50974334,9.19246862 2.64154251,6.28451883 4.46162619,4.46443515 C5.40514083,3.5209205 6.65827891,3 7.99300694,3 C9.32773498,3 10.5808731,3.5209205 11.5243877,4.46443515 Z M10.0850572,6.34728033 L5.90095673,6.34728033 C5.74405297,6.34728033 5.61852995,6.47280335 5.61852995,6.62970711 C5.61852995,6.78661088 5.74405297,6.91213389 5.90095673,6.91213389 L10.0850572,6.91213389 C10.2419609,6.91213389 10.3674839,6.78661088 10.3674839,6.62970711 C10.3674839,6.47280335 10.2398689,6.34728033 10.0850572,6.34728033 Z M10.0850572,7.71338912 L5.90095673,7.71338912 C5.74405297,7.71338912 5.61852995,7.83891213 5.61852995,7.9958159 C5.61852995,8.15271967 5.74405297,8.27824268 5.90095673,8.27824268 L10.0850572,8.27824268 C10.2419609,8.27824268 10.3674839,8.15271967 10.3674839,7.9958159 C10.3674839,7.83891213 10.2398689,7.71338912 10.0850572,7.71338912 Z M10.0850572,9.07949791 L5.90095673,9.07949791 C5.74405297,9.07949791 5.61852995,9.20502092 5.61852995,9.36192469 C5.61852995,9.51882845 5.74405297,9.64435146 5.90095673,9.64435146 L10.0850572,9.64435146 C10.2419609,9.64435146 10.3674839,9.51882845 10.3674839,9.36192469 C10.3674839,9.20502092 10.2398689,9.07949791 10.0850572,9.07949791 Z" id="Combined-Shape-Copy-2" fill="#ACACAC" fill-rule="nonzero"></path>
            </g>
        </g>
    </g>
</svg>