<?xml version="1.0" encoding="UTF-8"?>
<svg width="13px" height="15px" viewBox="0 0 13 15" version="1.1" xmlns="http://www.w3.org/2000/svg" xmlns:xlink="http://www.w3.org/1999/xlink">
    <!-- Generator: sketchtool 50.1 (55044) - http://www.bohemiancoding.com/sketch -->
    <title>8377A1CE-A967-4B50-8BBA-8AFD35762C55</title>
    <desc>Created with sketchtool.</desc>
    <defs></defs>
    <g id="Page-1" stroke="none" stroke-width="1" fill="none" fill-rule="evenodd">
        <g id="7-Dashboard" transform="translate(-1114.000000, -36.000000)" fill="#ACACAC" fill-rule="nonzero">
            <g id="notification" transform="translate(1114.000000, 36.000000)">
                <path d="M12.9538946,12.5313627 L11.8378111,10.7596523 C11.3223511,9.94190192 11.0499802,9.00526561 11.0499802,8.05194408 L11.0499802,6.49998549 C11.0499802,4.54070415 9.67712654,2.88352705 7.79984294,2.34928047 L7.79984294,1.23810215 C7.79984294,0.555284475 7.21677013,0 6.49978193,0 C5.78279373,0 5.19972092,0.555284475 5.19972092,1.23810215 L5.19972092,2.34928047 C3.32246779,2.88352705 1.94961409,4.54070415 1.94961409,6.49998549 L1.94961409,8.05194408 C1.94961409,9.00526561 1.67724328,9.94126352 1.16242314,10.7590429 L0.0463396318,12.5307533 C-0.014112733,12.6267151 -0.0154229405,12.745572 0.0424394793,12.8427526 C0.100301899,12.9399332 0.207556095,13 0.324560672,13 L12.6750337,13 C12.7920382,13 12.8999323,12.9399622 12.9577947,12.843391 C13.0156571,12.7467907 13.0137071,12.6266861 12.9538946,12.5313627 Z" id="Shape"></path>
                <path d="M4,14 C4.35820984,14.5890032 5.1165477,15 5.99998511,15 C6.88342252,15 7.64179016,14.5890032 8,14 L4,14 Z" id="Shape"></path>
            </g>
        </g>
    </g>
</svg>