<?xml version="1.0" encoding="UTF-8"?>
<svg width="20px" height="20px" viewBox="0 0 20 20" version="1.1" xmlns="http://www.w3.org/2000/svg" xmlns:xlink="http://www.w3.org/1999/xlink">
    <!-- Generator: sketchtool 50.2 (55047) - http://www.bohemiancoding.com/sketch -->
    <title>EBEA2CDB-7424-40B2-A241-F518F6D571F4</title>
    <desc>Created with sketchtool.</desc>
    <defs></defs>
    <g id="Page-1" stroke="none" stroke-width="1" fill="none" fill-rule="evenodd">
        <g id="11-Mi-perfil---cambiar-avatar-o-subir-img" transform="translate(-508.000000, -244.000000)" fill="#FFFFFF" fill-rule="nonzero">
            <g id="pencil-striped-symbol-for-interface-edit-buttons" transform="translate(508.000000, 244.000000)">
                <path d="M19.2376955,6.02625514 L18.3551852,6.90917695 L13.0596708,1.61440329 L13.9421811,0.731399177 C14.917037,-0.243580247 16.4979012,-0.243580247 17.4728395,0.731399177 L19.2376955,2.49670782 C20.2112346,3.47115226 20.2112346,5.05135802 19.2376955,6.02625514 Z M6.88201646,16.615144 C6.63831276,16.8588477 6.63831276,17.2535391 6.88201646,17.497284 C7.12584362,17.7423457 7.52074074,17.7423457 7.76444444,17.497284 L17.4728395,7.79156379 L16.5893416,6.90855967 L6.88201646,16.615144 Z M2.4691358,12.2032922 C2.22530864,12.4472016 2.22530864,12.8417284 2.4691358,13.0855967 C2.71283951,13.3293416 3.10773663,13.3293416 3.35156379,13.0855967 L13.0596708,3.3791358 L12.1775309,2.49670782 L2.4691358,12.2032922 Z M13.9410288,4.26090535 L4.23378601,13.9679424 C3.74633745,14.4544444 3.74757202,15.2453498 4.23378601,15.7327984 C4.72144033,16.2202881 5.51106996,16.2225514 5.99979424,15.7314815 L15.707037,6.02625514 L13.9410288,4.26090535 Z M5.99728395,18.3774486 C5.69880658,18.0786008 5.55493827,17.6998765 5.50139918,17.3096296 C5.37452675,17.3292181 5.24674897,17.3474486 5.11621399,17.3474486 C4.44946502,17.3474486 3.82325103,17.0868313 3.35156379,16.615144 C2.87987654,16.1422634 2.62028807,15.5169136 2.62028807,14.8502469 C2.62028807,14.7286831 2.63851852,14.6102058 2.65563786,14.4920988 C2.25222222,14.4371605 1.87934156,14.2604527 1.58683128,13.9679424 C1.55876543,13.9400823 1.54909465,13.9022634 1.52353909,13.8717284 L0,19.9677366 L6.08016461,18.445679 C6.05337449,18.4212757 6.02304527,18.4030041 5.99728395,18.3774486 Z" id="Shape"></path>
            </g>
        </g>
    </g>
</svg>